<svg width="390" height="844" viewBox="0 0 390 844" fill="none" xmlns="http://www.w3.org/2000/svg">
<g clip-path="url(#clip0_12_2)">
<rect width="390" height="844" fill="#193840"/>
<path fill-rule="evenodd" clip-rule="evenodd" d="M340.338 -77.1359C353.755 -82.2281 367.433 -90.2637 381.443 -87.1851C395.072 -84.19 402.675 -70.2015 413.255 -61.112C421.84 -53.7359 429.462 -46.1463 437.939 -38.6459C450.566 -27.4729 471.905 -22.5262 475.485 -6.04983C478.875 9.54996 463.796 23.212 454.149 35.9475C445.365 47.5432 432.617 54.4152 422.083 64.4496C407.92 77.9403 400.398 109.71 381.353 105.29C359.757 100.277 369.131 59.499 350.312 47.7913C332.55 36.7412 302.573 63.1339 288.591 47.5801C276.083 33.6661 300.539 12.69 301.984 -5.96936C303.274 -22.637 288.595 -40.2337 296.53 -54.9563C304.428 -69.6101 324.771 -71.2273 340.338 -77.1359Z" fill="#42B4CA" stroke="#BFDE42" stroke-width="2"/>
<path fill-rule="evenodd" clip-rule="evenodd" d="M65.1817 -30.2109C76.0915 -19.1678 91.8653 -9.25565 92.8807 6.23441C93.9173 22.0495 75.1918 32.0684 70.2512 47.1277C65.7022 60.9933 78.9431 84.3689 65.435 89.8898C48.5959 96.7722 32.6745 62.3624 15.8789 69.3503C-5.08943 78.0744 1.67256 130.798 -20.4399 125.619C-42.2159 120.519 -10.2559 76.7672 -24.8424 59.8133C-37.7159 44.8505 -73.101 70.5339 -82.681 53.276C-90.9961 38.2968 -60.1428 28.584 -49.7305 14.9787C-43.7037 7.10387 -38.4452 -0.859367 -34.3416 -9.88678C-27.5024 -24.9318 -30.7185 -45.5874 -17.6183 -55.6627C-5.08976 -65.2982 13.794 -63.1704 28.9017 -58.5264C43.8193 -53.9409 54.2135 -41.3131 65.1817 -30.2109Z" fill="#42B4CA" stroke="#BFDE42" stroke-width="2"/>
<path fill-rule="evenodd" clip-rule="evenodd" d="M197.182 -92.2109C208.091 -81.1678 223.865 -71.2557 224.881 -55.7656C225.917 -39.9505 207.192 -29.9316 202.251 -14.8723C197.702 -1.00669 210.943 22.3689 197.435 27.8898C180.596 34.7722 164.674 0.362406 147.879 7.35034C126.911 16.0744 133.673 68.7975 111.56 63.6188C89.7841 58.5188 121.744 14.7672 107.158 -2.18671C94.2841 -17.1495 58.899 8.53391 49.319 -8.72399C41.0039 -23.7032 71.8572 -33.416 82.2695 -47.0213C88.2963 -54.8961 93.5548 -62.8594 97.6584 -71.8868C104.498 -86.9318 101.281 -107.587 114.382 -117.663C126.91 -127.298 145.794 -125.17 160.902 -120.526C175.819 -115.941 186.213 -103.313 197.182 -92.2109Z" fill="#42B4CA" stroke="#BFDE42" stroke-width="2"/>
<path fill-rule="evenodd" clip-rule="evenodd" d="M289.243 -1.05919C275.447 6.79453 261.481 19.7523 245.911 16.6554C230.015 13.4935 225.075 -7.65523 211.507 -16.5214C199.015 -24.6848 172.42 -17.7925 170.542 -32.597C168.2 -51.0521 206.404 -57.6717 203.947 -76.1118C200.879 -99.1332 147.01 -106.408 157.978 -126.88C168.779 -147.04 203.538 -103.891 224.145 -113.812C242.333 -122.568 226.329 -164.319 245.911 -169.214C262.909 -173.463 264.337 -140.415 275.02 -126.529C281.204 -118.492 287.678 -111.19 295.509 -104.747C308.56 -94.0091 329.815 -91.7189 336.3 -76.1118C342.501 -61.186 335.401 -43.0959 326.816 -29.4018C318.338 -15.88 303.113 -8.95501 289.243 -1.05919Z" fill="#42B4CA" stroke="#BFDE42" stroke-width="2"/>
<path d="M682.989 302.353C608.744 323.846 574.962 281.027 567.351 256.93C558.742 230.561 527.254 183.383 470.17 205.625C398.816 233.428 373.153 248.207 349.317 220.165C325.482 192.122 303.752 156.221 210.501 175.75C117.249 195.279 56.2229 144.036 38.536 120.047C20.849 96.0579 -19.0485 82.9612 -118.316 124.941C-217.584 166.92 -195.404 88.6444 -212.724 76.7847C-230.044 64.9251 -338.498 46.6929 -355.908 57.6686C-369.836 66.4491 -369.13 89.0162 -367.037 99.2021" stroke="#BFDE42" stroke-width="3" stroke-linecap="round" stroke-dasharray="10 10"/>
<path d="M624.976 353.299C587.675 420.997 533.509 414.606 511.089 402.949C486.356 390.39 430.73 379.297 406.094 435.388C375.298 505.502 367.602 534.1 330.919 531.125C294.235 528.15 253.484 518.129 201.354 597.877C149.224 677.625 69.8387 684.543 40.3692 680.087C10.8997 675.63 -26.5729 694.581 -67.0817 794.458C-107.591 894.335 -147.256 823.302 -167.889 827.163C-188.522 831.024 -278.103 894.821 -282.653 914.893C-286.293 930.95 -269.837 946.408 -261.154 952.131" stroke="#BFDE42" stroke-width="3" stroke-linecap="round" stroke-dasharray="10 10"/>
</g>
<defs>
<clipPath id="clip0_12_2">
<rect width="390" height="844" fill="white"/>
</clipPath>
</defs>
</svg>
